<svg xmlns="http://www.w3.org/2000/svg" viewBox="0 0 72 47.24">
	<title>randomise</title>
	<path d="M33.48,31.76C40,22.59,49.76,17.08,60.19,17.08h5.39v-4.7L72,18.8l-6.42,6.42v-4.7H60.19c-9.74,0-18.92,5.39-24.76,14.33Z" transform="translate(0 -12.38)" fill="#000000"/>
	<path d="M32.1,40.24C25.57,49.41,15.82,54.92,5.39,54.92H0V51.48H5.39c9.74,0,18.8-5.39,24.65-14.33C30.15,37.26,31.41,39.32,32.1,40.24Z" transform="translate(0 -12.38)" fill="#000000"/>
	<path d="M65.46,46.78l6.43,6.42-6.43,6.42v-4.7H60.08c-10.78,0-20.87-5.74-27.4-15.6A27,27,0,0,1,30.73,36C24.88,26.25,15.48,20.52,5.39,20.52H0V17.08H5.39c10.78,0,20.86,5.74,27.4,15.6.57.8,1.83,3,2,3.21C40.59,45.63,50,51.36,60.08,51.36h5.38Z" transform="translate(0 -12.38)" fill="#000000"/>
</svg>