<svg xmlns="http://www.w3.org/2000/svg" viewBox="0 0 72 72">
  <title>settings</title>
  <path d="M72,41.87V30.13H65.33a31.65,31.65,0,0,0-4.4-10.8l4.54-4.53-8.4-8.4-4.54,4.53a28.55,28.55,0,0,0-10.8-4.4V0H30V6.53a31.85,31.85,0,0,0-10.8,4.4L14.67,6.4,6.4,14.67l4.53,4.53A28.62,28.62,0,0,0,6.53,30H0V41.73H6.53a31.77,31.77,0,0,0,4.4,10.8L6.4,57.07l8.4,8.4,4.53-4.54a28.36,28.36,0,0,0,10.8,4.4V72H41.87V65.33a31.65,31.65,0,0,0,10.8-4.4l4.53,4.54,8.4-8.4-4.53-4.54a28.55,28.55,0,0,0,4.4-10.8ZM36,55.73A19.8,19.8,0,1,1,55.73,35.87h0A19.71,19.71,0,0,1,36.16,55.73H36Z" fill="#231f20"/>
</svg>